<svg width="16" height="13" viewBox="0 0 16 13" fill="none" xmlns="http://www.w3.org/2000/svg">
<path d="M7.99992 10C6.10368 10 4.56868 8.53229 4.42743 6.6723L1.80494 4.64555C1.46019 5.07805 1.14294 5.5353 0.886943 6.0353C0.829754 6.14843 0.799957 6.27341 0.799957 6.40017C0.799957 6.52693 0.829754 6.65192 0.886943 6.76505C2.24269 9.41029 4.92668 11.2 7.99992 11.2C8.67267 11.2 9.32167 11.1 9.94717 10.9385L8.64992 9.93479C8.43568 9.97617 8.21812 9.99801 7.99992 10ZM15.8454 11.4525L13.0817 9.31654C13.9212 8.60902 14.6117 7.74162 15.1129 6.7648C15.1701 6.65167 15.1999 6.52668 15.1999 6.39992C15.1999 6.27316 15.1701 6.14817 15.1129 6.03505C13.7572 3.38981 11.0732 1.60006 7.99992 1.60006C6.7128 1.60162 5.44658 1.92565 4.31693 2.54256L1.13644 0.0843154C1.09497 0.0520424 1.04754 0.0282581 0.996871 0.0143219C0.946201 0.000385569 0.893282 -0.00342962 0.841137 0.0030943C0.788992 0.00961822 0.738644 0.0263534 0.692969 0.0523435C0.647295 0.0783335 0.607189 0.113069 0.574944 0.154565L0.0841957 0.786313C0.0190955 0.870059 -0.0100755 0.976233 0.00309852 1.08148C0.0162725 1.18674 0.0707126 1.28244 0.154445 1.34756L14.8634 12.7158C14.9049 12.7481 14.9523 12.7718 15.003 12.7858C15.0536 12.7997 15.1066 12.8035 15.1587 12.797C15.2109 12.7905 15.2612 12.7737 15.3069 12.7478C15.3525 12.7218 15.3927 12.687 15.4249 12.6455L15.9159 12.0138C15.981 11.93 16.0101 11.8238 15.9969 11.7186C15.9837 11.6133 15.9292 11.5176 15.8454 11.4525ZM11.2524 7.90254L10.2699 7.14304C10.3527 6.90391 10.3965 6.65307 10.3999 6.40005C10.4048 6.02961 10.3227 5.6632 10.1603 5.33024C9.99789 4.99727 9.75964 4.70704 9.46471 4.48286C9.16977 4.25867 8.82637 4.10678 8.46209 4.03939C8.0978 3.97199 7.72279 3.99097 7.36717 4.0948C7.51793 4.29908 7.59947 4.54617 7.59992 4.80005C7.59619 4.88453 7.58328 4.96836 7.56142 5.05005L5.72118 3.62781C6.36042 3.09361 7.16686 2.80067 7.99992 2.80006C8.47275 2.79979 8.941 2.89273 9.37789 3.07355C9.81478 3.25438 10.2117 3.51954 10.5461 3.85388C10.8804 4.18823 11.1456 4.58519 11.3264 5.02208C11.5072 5.45897 11.6002 5.92722 11.5999 6.40005C11.5999 6.9408 11.4677 7.44479 11.2524 7.90279V7.90254Z" fill="#656667"/>
</svg>
