<svg width="14" height="14" viewBox="0 0 14 14" fill="none" xmlns="http://www.w3.org/2000/svg">
<path d="M6.61 0C2.95965 0 0 2.96072 0 6.61C0 10.2614 2.95965 13.22 6.61 13.22C10.2603 13.22 13.22 10.2614 13.22 6.61C13.22 2.96072 10.2603 0 6.61 0ZM6.61 2.93185C7.22825 2.93185 7.72944 3.43304 7.72944 4.05129C7.72944 4.66954 7.22825 5.17073 6.61 5.17073C5.99175 5.17073 5.49056 4.66954 5.49056 4.05129C5.49056 3.43304 5.99175 2.93185 6.61 2.93185ZM8.10258 9.70177C8.10258 9.87841 7.95937 10.0216 7.78274 10.0216H5.43726C5.26063 10.0216 5.11742 9.87841 5.11742 9.70177V9.0621C5.11742 8.88547 5.26063 8.74226 5.43726 8.74226H5.7571V7.03645H5.43726C5.26063 7.03645 5.11742 6.89324 5.11742 6.71661V6.07694C5.11742 5.9003 5.26063 5.7571 5.43726 5.7571H7.14306C7.3197 5.7571 7.4629 5.9003 7.4629 6.07694V8.74226H7.78274C7.95937 8.74226 8.10258 8.88547 8.10258 9.0621V9.70177Z" fill="#656667"/>
</svg>
