<svg width="15" height="15" viewBox="0 0 15 15" fill="none" xmlns="http://www.w3.org/2000/svg">
<path d="M8.55338 13.5317L7.81611 14.2689C7.50393 14.5811 6.99913 14.5811 6.69027 14.2689L0.234135 7.81611C-0.0780449 7.50393 -0.0780449 6.99913 0.234135 6.69027L6.69027 0.234135C7.00245 -0.0780449 7.50725 -0.0780449 7.81611 0.234135L8.55338 0.97141C8.86889 1.28691 8.86224 1.80167 8.5401 2.11053L4.53823 5.92311H14.0829C14.5246 5.92311 14.88 6.27846 14.88 6.72016V7.7829C14.88 8.2246 14.5246 8.57996 14.0829 8.57996H4.53823L8.5401 12.3925C8.86556 12.7014 8.87221 13.2162 8.55338 13.5317Z" fill="#ffffff"/>
</svg>
