<svg width="13" height="16" viewBox="0 0 13 16" fill="none" xmlns="http://www.w3.org/2000/svg">
<path d="M8.66667 4.33334V13.7006L5.62611 12.3933L5.05556 12.1478L4.485 12.3933L1.44444 13.7006V4.33334H8.66667ZM11.5556 0H4.32611C3.53167 0 2.88889 0.650001 2.88889 1.44445H10.1111C10.9056 1.44445 11.5556 2.09445 11.5556 2.88889V12.2778L13 13V1.44445C13 0.650001 12.35 0 11.5556 0ZM8.66667 2.88889H1.44444C0.65 2.88889 0 3.53889 0 4.33334V15.8889L5.05556 13.7222L10.1111 15.8889V4.33334C10.1111 3.53889 9.46111 2.88889 8.66667 2.88889Z" fill="#656667"/>
</svg>
