<svg width="12" height="14" viewBox="0 0 12 14" fill="none" xmlns="http://www.w3.org/2000/svg">
<path d="M4.66674 0.333332L4.00008 0.999998H0.666748V2.33333H1.33341V12.3333C1.33341 12.6815 1.46097 13.0364 1.71232 13.2878C1.96367 13.5391 2.3186 13.6667 2.66675 13.6667H9.3334C9.68155 13.6667 10.0365 13.5391 10.2878 13.2878C10.5392 13.0364 10.6667 12.6815 10.6667 12.3333V2.33333H11.3334V0.999998H8.00007L7.33341 0.333332H4.66674ZM2.66675 2.33333H9.3334V12.3333H2.66675V2.33333ZM4.00008 3.66666V11H5.33341V3.66666H4.00008ZM6.66674 3.66666V11H8.00007V3.66666H6.66674Z" fill="#6F7070"/>
</svg>
