<svg width="10" height="10" viewBox="0 0 10 10" fill="none" xmlns="http://www.w3.org/2000/svg">
<path d="M9.7246 2.77405L8.82417 3.67449C8.73236 3.76629 8.58392 3.76629 8.49212 3.67449L6.32405 1.50642C6.23225 1.41462 6.23225 1.26617 6.32405 1.17437L7.22448 0.273939C7.58973 -0.0913128 8.18351 -0.0913128 8.55071 0.273939L9.7246 1.44782C10.0918 1.81307 10.0918 2.40685 9.7246 2.77405ZM5.55058 1.94784L0.421432 7.07699L0.00735004 9.45015C-0.0492932 9.77047 0.230017 10.0478 0.550344 9.99314L2.9235 9.5771L8.05264 4.44796C8.14445 4.35616 8.14445 4.20772 8.05264 4.11591L5.88458 1.94784C5.79082 1.85604 5.64238 1.85604 5.55058 1.94784ZM2.42348 6.63752C2.31605 6.53009 2.31605 6.35821 2.42348 6.25078L5.43143 3.24283C5.53886 3.1354 5.71074 3.1354 5.81817 3.24283C5.92559 3.35025 5.92559 3.52214 5.81817 3.62956L2.81021 6.63752C2.70279 6.74494 2.5309 6.74494 2.42348 6.63752ZM1.71837 8.28017H2.65591V8.98919L1.39609 9.2099L0.788636 8.60245L1.00935 7.34263H1.71837V8.28017Z" fill="white"/>
</svg>
