<svg width="14" height="11" viewBox="0 0 14 11" fill="none" xmlns="http://www.w3.org/2000/svg">
<path d="M13.4216 5.64468L8.88475 10.1816C8.47967 10.5867 7.77753 10.3031 7.77753 9.72249V7.12998H4.10481C3.74564 7.12998 3.45668 6.84102 3.45668 6.48185V3.88934C3.45668 3.53017 3.74564 3.24121 4.10481 3.24121H7.77753V0.648702C7.77753 0.0707882 8.47697 -0.215468 8.88475 0.189612L13.4216 4.7265C13.6728 4.98035 13.6728 5.39083 13.4216 5.64468ZM5.18502 10.0466V8.96634C5.18502 8.7881 5.03919 8.64227 4.86096 8.64227H2.59251C2.11452 8.64227 1.72834 8.2561 1.72834 7.7781V2.59308C1.72834 2.11509 2.11452 1.72891 2.59251 1.72891H4.86096C5.03919 1.72891 5.18502 1.58309 5.18502 1.40485V0.324638C5.18502 0.146403 5.03919 0.000574367 4.86096 0.000574367H2.59251C1.16123 0.000574367 0 1.1618 0 2.59308V7.7781C0 9.20939 1.16123 10.3706 2.59251 10.3706H4.86096C5.03919 10.3706 5.18502 10.2248 5.18502 10.0466Z" fill="#CFCFFE"/>
</svg>
