<svg width="12" height="12" viewBox="0 0 12 12" fill="none" xmlns="http://www.w3.org/2000/svg">
<path d="M8.7 0C7.656 0 6.654 0.486 6 1.254C5.346 0.486 4.344 0 3.3 0C1.452 0 0 1.452 0 3.3C0 5.568 2.04 7.416 5.13 10.224L6 11.01L6.87 10.218C9.96 7.416 12 5.568 12 3.3C12 1.452 10.548 0 8.7 0ZM6.06 9.32999L6 9.38999L5.94 9.32999C3.084 6.744 1.2 5.034 1.2 3.3C1.2 2.1 2.1 1.2 3.3 1.2C4.224 1.2 5.124 1.794 5.442 2.616H6.564C6.876 1.794 7.776 1.2 8.7 1.2C9.9 1.2 10.8 2.1 10.8 3.3C10.8 5.034 8.916 6.744 6.06 9.32999Z" fill="#EF6B4A"/>
</svg>
