<svg width="11" height="11" viewBox="0 0 11 11" fill="none" xmlns="http://www.w3.org/2000/svg">
<path d="M8.75 7.71C8.33833 7.71 7.97 7.8725 7.68833 8.12708L3.82625 5.87916C3.85333 5.75458 3.875 5.63 3.875 5.5C3.875 5.37 3.85333 5.24541 3.82625 5.12083L7.645 2.89458C7.9375 3.16541 8.32208 3.33333 8.75 3.33333C9.64917 3.33333 10.375 2.6075 10.375 1.70833C10.375 0.809165 9.64917 0.0833321 8.75 0.0833321C7.85083 0.0833321 7.125 0.809165 7.125 1.70833C7.125 1.83833 7.14667 1.96291 7.17375 2.0875L3.355 4.31375C3.0625 4.04291 2.67792 3.875 2.25 3.875C1.35083 3.875 0.625 4.60083 0.625 5.5C0.625 6.39916 1.35083 7.125 2.25 7.125C2.67792 7.125 3.0625 6.95708 3.355 6.68625L7.21167 8.93958C7.18458 9.05333 7.16833 9.1725 7.16833 9.29166C7.16833 10.1637 7.87792 10.8733 8.75 10.8733C9.62208 10.8733 10.3317 10.1637 10.3317 9.29166C10.3317 8.41958 9.62208 7.71 8.75 7.71ZM8.75 1.16667C9.04792 1.16667 9.29167 1.41042 9.29167 1.70833C9.29167 2.00625 9.04792 2.25 8.75 2.25C8.45208 2.25 8.20833 2.00625 8.20833 1.70833C8.20833 1.41042 8.45208 1.16667 8.75 1.16667ZM2.25 6.04166C1.95208 6.04166 1.70833 5.79791 1.70833 5.5C1.70833 5.20208 1.95208 4.95833 2.25 4.95833C2.54792 4.95833 2.79167 5.20208 2.79167 5.5C2.79167 5.79791 2.54792 6.04166 2.25 6.04166ZM8.75 9.84416C8.45208 9.84416 8.20833 9.60041 8.20833 9.3025C8.20833 9.00458 8.45208 8.76083 8.75 8.76083C9.04792 8.76083 9.29167 9.00458 9.29167 9.3025C9.29167 9.60041 9.04792 9.84416 8.75 9.84416Z" fill="#656667"/>
</svg>
